<svg id="Layer_1" data-name="Layer 1" xmlns="http://www.w3.org/2000/svg" viewBox="0 0 83.16 86.53"><defs><style>.cls-1{fill:#010101;}</style></defs><path class="cls-1" d="M42.75,22.78c7.25,0,8.11,0,11,.16a14.75,14.75,0,0,1,5,.94A9,9,0,0,1,63.92,29a15.08,15.08,0,0,1,.93,5c.13,2.87.16,3.73.16,11s0,8.11-.16,11a15,15,0,0,1-.93,5,9,9,0,0,1-5.16,5.16,15.08,15.08,0,0,1-5,.93c-2.86.13-3.72.16-11,.16s-8.11,0-11-.16a15.08,15.08,0,0,1-5-.93,9,9,0,0,1-5.15-5.16,14.69,14.69,0,0,1-.94-5c-.13-2.86-.16-3.72-.16-11s0-8.11.16-11a14.75,14.75,0,0,1,.94-5,9,9,0,0,1,5.15-5.15,14.75,14.75,0,0,1,5-.94c2.87-.13,3.72-.16,11-.16m0-4.89c-7.38,0-8.3,0-11.2.16A19.59,19.59,0,0,0,25,19.32,13.86,13.86,0,0,0,17,27.26a19.65,19.65,0,0,0-1.27,6.59c-.13,2.9-.16,3.82-.16,11.2s0,8.3.16,11.19A19.59,19.59,0,0,0,17,62.83a13.25,13.25,0,0,0,3.13,4.82A13.48,13.48,0,0,0,25,70.78,19.87,19.87,0,0,0,31.55,72c2.9.13,3.82.16,11.2.16s8.3,0,11.19-.16a19.87,19.87,0,0,0,6.59-1.26,13.89,13.89,0,0,0,8-8,19.87,19.87,0,0,0,1.26-6.59c.13-2.89.16-3.82.16-11.19s0-8.3-.16-11.2a19.93,19.93,0,0,0-1.26-6.59,13.38,13.38,0,0,0-3.14-4.81,13.22,13.22,0,0,0-4.81-3.13,19.59,19.59,0,0,0-6.59-1.27c-2.89-.13-3.82-.16-11.19-.16"/><path class="cls-1" d="M42.75,31.1A13.95,13.95,0,1,0,56.69,45.05,13.94,13.94,0,0,0,42.75,31.1m0,23a9.06,9.06,0,1,1,9-9.05,9.06,9.06,0,0,1-9,9.05"/><path class="cls-1" d="M60.5,30.55a3.26,3.26,0,1,1-3.26-3.26,3.26,3.26,0,0,1,3.26,3.26"/></svg>