<svg id="Layer_1" data-name="Layer 1" xmlns="http://www.w3.org/2000/svg" viewBox="0 0 95.52 86.53"><path d="M50.9,7.73A35.08,35.08,0,1,0,86,42.81,35.09,35.09,0,0,0,50.9,7.73ZM67,58.42a2.09,2.09,0,0,1-3,.7C55.81,54,45.46,53,33.19,55.79a2.17,2.17,0,1,1-1.06-4.21c13.33-3,24.91-1.75,34,3.86A2.11,2.11,0,0,1,67,58.42Zm4.21-9.65a2.65,2.65,0,0,1-3.69.88c-9.47-5.79-23.85-7.54-34.9-4a2.66,2.66,0,0,1-1.58-5.09c12.8-3.86,28.59-1.93,39.47,4.74A2.47,2.47,0,0,1,71.25,48.77ZM71.6,39c-11.23-6.66-30-7.36-40.69-4A3.22,3.22,0,1,1,29,28.78c12.45-3.68,33-3,46,4.73a3.4,3.4,0,0,1,1.23,4.56A3.67,3.67,0,0,1,71.6,39Z"/></svg>