<svg id="Layer_1" data-name="Layer 1" xmlns="http://www.w3.org/2000/svg" viewBox="0 0 106.76 86.53"><defs><style>.cls-1{fill:none;}</style></defs><path d="M89.28,23a10,10,0,0,0-7-7.1C76,14.26,51.07,14.26,51.07,14.26s-24.94,0-31.16,1.68a10,10,0,0,0-7,7.1c-1.67,6.26-1.67,19.32-1.67,19.32s0,13.06,1.67,19.33a10,10,0,0,0,7.05,7.09c6.22,1.68,31.16,1.68,31.16,1.68s24.94,0,31.16-1.68a10,10,0,0,0,7-7.09C91,55.42,91,42.36,91,42.36S91,29.3,89.28,23ZM42.91,54.22V30.5L63.76,42.36Z"/><polygon class="cls-1" points="42.91 54.22 63.76 42.36 42.91 30.5 42.91 54.22"/></svg>